<?xml version="1.0" standalone="no"?>
<!DOCTYPE svg PUBLIC "-//W3C//DTD SVG 20010904//EN"
 "http://www.w3.org/TR/2001/REC-SVG-20010904/DTD/svg10.dtd">
<svg version="1.0" xmlns="http://www.w3.org/2000/svg"
 width="500.000000pt" height="500.000000pt" viewBox="0 0 500.000000 500.000000"
 preserveAspectRatio="xMidYMid meet">
<metadata>
Created by potrace 1.14, written by Peter Selinger 2001-2017
</metadata>
<g transform="translate(0.000000,500.000000) scale(0.100000,-0.100000)"
fill="#000000" stroke="none">
<path d="M2368 4995 c-2 -2 -32 -6 -68 -9 -255 -24 -478 -85 -700 -193 -92
-45 -277 -157 -300 -183 -3 -3 -31 -27 -63 -54 -334 -280 -575 -705 -677
-1198 -23 -112 -27 -135 -36 -213 -3 -33 -8 -69 -10 -79 -20 -105 -27 -823
-11 -1016 12 -144 53 -393 81 -495 122 -448 315 -775 622 -1055 244 -223 613
-394 969 -450 39 -6 81 -13 95 -15 128 -23 653 -23 765 -1 12 2 51 7 88 11 56
5 182 27 284 49 97 21 336 101 443 148 229 102 496 281 616 416 l30 34 0 978
c-1 538 -4 981 -7 984 -7 7 -1920 9 -1927 2 -6 -7 -5 -766 1 -772 3 -3 189 -6
414 -6 224 1 415 -1 423 -3 13 -4 15 -55 14 -387 -1 -211 -2 -386 -3 -389 0
-3 -27 -24 -59 -47 -121 -84 -271 -135 -468 -157 -52 -6 -322 -7 -354 -1 -14
2 -47 7 -75 11 -113 14 -266 71 -375 140 -73 45 -210 192 -263 281 -76 128
-148 313 -170 439 -48 264 -52 321 -52 740 0 366 4 471 24 600 6 33 12 76 15
95 3 19 17 80 31 135 83 324 244 560 465 683 68 38 140 65 240 89 69 17 283
22 375 10 292 -40 481 -165 593 -393 44 -88 75 -179 92 -269 6 -33 14 -68 16
-77 5 -17 39 -18 529 -18 415 0 523 3 520 13 -2 6 -7 36 -10 65 -3 30 -14 98
-25 151 -77 378 -228 680 -450 901 -119 119 -120 120 -233 196 -187 125 -474
237 -692 269 -23 3 -50 7 -61 9 -11 2 -47 7 -79 11 -33 4 -71 9 -85 11 -28 6
-487 14 -492 9z"/>
</g>
</svg>
