<svg width="576" height="359" viewBox="0 0 576 359" fill="none" xmlns="http://www.w3.org/2000/svg">
<rect width="576" height="359" fill="#E5E5E5"/>
<g clip-path="url(#clip0_0_1)">
<rect width="1440" height="3072" transform="translate(-864 -1511)" fill="white"/>
</g>
<path d="M35 199C40.0699 214.44 48.665 231.304 60.7778 242.333C71.2416 251.861 75.3468 232.108 75.5556 225.167C76.1461 205.532 66.3886 187.138 45.5556 184.111C38.6451 183.107 30.6177 184.235 26.6111 190.667C22.3566 197.496 27.0226 203.045 30 209" stroke="black" stroke-width="3" stroke-linecap="round"/>
<path d="M69 195C74.1109 213.136 82.2034 230.531 88.4444 248.333C97.3781 273.816 109.927 298.143 98 324.889C93.0208 336.054 84.0546 348.696 73 354.667C66.8519 357.987 63.2523 353.694 59.3333 349.556C39.6726 328.794 22.0113 306.437 2 286" stroke="black" stroke-width="3" stroke-linecap="round"/>
<path d="M142 174C142 194.804 142.209 215.541 143 236.333C143.787 257.033 144.195 277.73 143.889 298.444C143.647 314.858 142.121 331.501 143.611 347.889C144.345 355.962 144.861 357.498 152.667 357C167.623 356.045 183.219 350.978 197 345.556C227.51 333.55 252.878 315.51 274.556 290.889C295.234 267.402 312.818 240.934 331.333 215.778C356.381 181.746 381.711 147.887 411 117.333C419.927 108.021 433.65 90.829 447.111 86.5555C452.612 84.8091 457.31 85.6876 462.889 83.0555C480.658 74.6714 497.036 61.9304 512.667 50.3333C569.669 8.03942 625.989 -35.2267 682.889 -77.6667C731.877 -114.206 788.892 -151.647 807.556 -213.444C811.874 -227.744 812 -244.103 812 -259" stroke="black" stroke-width="3" stroke-linecap="round"/>
<defs>
<clipPath id="clip0_0_1">
<rect width="1440" height="3072" fill="white" transform="translate(-864 -1511)"/>
</clipPath>
</defs>
</svg>
