<svg width="131" height="215" viewBox="0 0 131 215" fill="none" xmlns="http://www.w3.org/2000/svg">
<path d="M54.6439 152.377C43.7549 161.739 36.6424 173.829 27.7459 184.24C19.445 193.955 10.5039 203.386 2 213" stroke="black" stroke-width="3" stroke-linecap="round"/>
<path d="M56.0439 153.671C63.0209 167.593 72.7285 180.659 79.4339 194.656C81.4983 198.965 83.1119 203.319 84.2765 207.81C84.6608 209.292 84.4889 211.209 86.5526 211.724" stroke="black" stroke-width="3" stroke-linecap="round"/>
<path d="M53.4287 152.366C53.4287 142.82 52.9342 133.194 53.8161 123.666C54.7173 113.93 56.9154 104.214 56.9154 94.4578C56.9154 87.3757 56.0437 80.5191 56.0437 73.4397" stroke="black" stroke-width="3" stroke-linecap="round"/>
<path d="M31.637 47.348C32.0201 54.9449 38.0923 65.1381 48.1504 68.1487C52.3577 69.4081 55.7058 70.7808 60.4023 70.8303C65.3236 70.8822 70.1275 70.178 75.027 70.178C78.4379 70.178 81.8238 70.4931 84.8576 69.0909C93.24 65.2166 100.136 56.0758 105.148 49.9209C110.002 43.9602 109.216 37.087 109.216 30.3886C109.216 25.6129 108.532 23.9727 105.536 19.952C100.962 13.8151 92.1524 6.32468 83.0658 3.97097C73.0606 1.3793 60.1988 0.759444 51.4918 5.74664C36.6303 14.2591 22.9203 25.1833 22.9203 40.1729C22.9203 44.6391 26.0199 45.6329 30.7654 48.0003" stroke="black" stroke-width="3" stroke-linecap="round"/>
<path d="M56.9155 97.574C62.5078 97.6935 67.3603 98.6669 72.7994 99.4584C80.4545 100.572 88.4839 100.211 96.2377 100.183C102.059 100.162 108.65 100.683 113.574 98.2263" stroke="black" stroke-width="3" stroke-linecap="round"/>
<path d="M56.0439 101.488C68.6905 103.249 80.7718 107.75 94.0102 108.011C99.0219 108.11 103.6 107.359 108.344 107.359" stroke="black" stroke-width="3" stroke-linecap="round"/>
<path d="M101.371 87.7896C104.647 92.0801 105.058 97.1694 107.521 101.777C108.694 103.973 110.087 104.699 110.087 107.213C110.087 109.339 111.074 111.024 111.637 113.084C112.623 116.69 112.359 115.722 116.722 114.57C123.671 112.734 124.034 113.224 124.034 107.648C124.034 101.574 129.73 91.6862 121.468 88.0795C119.222 87.0992 117.464 85.8327 114.639 85.8327C112.501 85.8327 101.346 85.1804 108.344 85.1804" stroke="black" stroke-width="3" stroke-linecap="round"/>
<path d="M120.548 91.7037C123.182 95.9747 123.163 99.6327 123.163 104.242C123.163 104.962 124.015 110.063 122.775 110.475C119.087 111.702 118.007 106.176 117.739 104.749C117.294 102.388 115.541 99.9707 115.318 97.7192C115.118 95.6975 115.065 96.0868 115.899 98.0091C116.995 100.535 118.201 102.911 118.804 105.547C118.966 106.252 118.921 109.765 119.676 110.33C121.069 111.372 119.676 107.383 119.676 105.909C119.676 103.276 119.719 100.642 119.676 98.0091C119.664 97.2723 118.095 92.8003 117.981 93.6968C117.44 97.9471 119.012 102.634 117.836 106.815C117.723 107.217 111.296 98.6331 110.088 97.2481C108.05 94.9136 104.858 87.0673 104.858 89.8556C104.858 92.3395 106.195 94.515 106.552 96.922C107.376 102.469 108.813 93.2488 109.264 92.0661C109.97 90.2185 114.94 94.8699 115.269 95.255C116.481 96.6725 117.933 101.576 117.933 99.8935C117.933 97.568 114.872 93.4806 112.509 92.0661C110.665 90.9624 108.559 91.1105 106.795 89.8918C103.807 87.8278 111.384 87.3305 113.574 88.0799C114.541 88.4105 119.26 89.6873 115.996 89.7468C111.728 89.8247 110.091 89.2119 108.925 93.1532C108.063 96.0708 105.002 114.908 113.187 112.867C115.657 112.251 117.498 111.272 120.16 111.272C120.822 111.272 126.263 111.272 123.114 111.272C118.805 111.272 113.59 111.502 115.705 107.431C116.217 106.447 116.671 104.892 115.608 104.025C114.54 103.153 109.93 100.801 112.703 103.082C113.649 103.862 115.014 110.847 116.189 109.968" stroke="black" stroke-width="3" stroke-linecap="round"/>
<path d="M56.9157 31.0408C53.3186 35.0784 58.8791 34.4669 58.659 34.3022C58.1976 33.9569 54.8219 32.4666 56.5283 33.1426C57.0541 33.3509 61.7583 35.0663 61.7583 35.4618C61.7583 35.9515 58.8802 33.4942 58.659 32.9976" stroke="black" stroke-width="3" stroke-linecap="round"/>
<path d="M82.194 33.6502C85.6527 36.1622 92.9715 38.9409 87.8114 33.9763C86.7711 32.9754 85.5117 32.9324 83.9373 32.9979C80.982 33.1207 84.1988 34.4981 84.809 34.9547" stroke="black" stroke-width="3" stroke-linecap="round"/>
<path d="M62.1455 51.9142C67.8476 51.9142 73.1755 51.6445 78.7073 50.6096" stroke="black" stroke-width="3" stroke-linecap="round"/>
<path d="M100.407 84.286C100.965 85.3965 101.552 86.5727 101.552 87.7733C101.552 88.1036 101.552 88.425 101.633 88.7511C101.676 88.9236 101.364 87.9146 101.309 87.756C101.059 87.0344 100.9 86.1611 100.928 85.4109C100.943 85.0055 101.556 85.0024 101.98 84.9696C103.48 84.8535 104.951 84.7087 106.443 84.5369C106.522 84.5279 107.667 84.4465 107.692 84.286C107.727 84.0686 107.413 84.0493 107.924 83.9572C110.354 83.5187 113.011 83.4304 115.498 83.3687C116.992 83.3317 118.49 83.3514 119.985 83.3514C120.912 83.3514 116.294 83.5851 117.221 83.5851C118.927 83.5851 120.703 83.4709 122.401 83.6024C123.558 83.6919 124.522 84.1302 125.697 84.1302C125.935 84.1302 126.48 84.0496 126.657 84.1822C127.274 84.6439 127.149 85.7109 127.154 86.2936C127.161 87.0607 127.154 87.8281 127.154 88.5953C127.154 89.1536 127.34 89.6765 127.362 90.2222C127.423 91.7253 127.529 93.1893 127.964 94.67C128.107 95.158 127.962 93.6668 127.86 93.1729C127.592 91.878 126.885 90.7155 126.322 89.4866C125.863 88.4856 125.866 87.0435 124.39 86.6051C124.074 86.511 123.402 86.3625 123.176 86.1724C123.081 86.0927 123.462 86.1613 123.604 86.1724C124.22 86.2207 124.822 86.336 125.408 86.4839C126.554 86.773 127.51 87.215 127.964 88.0935C128.539 89.2085 128.327 90.5611 128.195 91.7235C128.053 92.9741 127.961 94.3004 128.206 95.5483C128.393 96.4954 128.507 97.3906 128.507 98.3476C128.507 100.279 128.507 102.21 128.507 104.141C128.507 105.577 128.403 107.01 128.403 108.446C128.403 108.912 128.47 109.428 128.247 109.874C128.195 109.978 128.091 110.067 128.091 110.181C128.091 110.828 127.713 107.622 127.958 108.243C128.481 109.567 128.882 110.822 128.918 112.215C128.922 112.389 129.131 113.758 128.866 113.872C128.762 113.916 128.222 113.803 128.097 113.807C124.707 113.91 121.375 115.07 118.204 115.853C116.816 116.196 115.372 116.577 113.902 116.662C113.375 116.693 113.473 116.601 113.85 116.472C114.584 116.221 115.343 116 116.105 115.801C116.478 115.704 117.342 115.637 117.66 115.447C118.037 115.221 116.705 115.546 116.226 115.589C115.612 115.645 115.017 115.73 114.399 115.754C113.609 115.784 112.747 115.84 112.04 116.104C111.679 116.239 111.161 116.38 110.924 116.645C110.463 117.163 109.068 113.84 109.034 113.763C108.129 111.711 107.316 109.555 107.178 107.382C107.014 104.811 108.109 112.497 108.109 115.07C108.109 115.902 108.044 113.407 107.958 112.578C107.751 110.57 107.304 108.594 106.929 106.603C106.148 102.453 105.54 98.3487 104.212 94.2676C103.668 92.5974 103.166 90.9262 102.778 89.2314C102.567 88.3124 102.223 87.2741 102.518 86.3412C102.587 86.1232 102.621 85.8244 103.038 86.0643C103.673 86.4294 104.683 87.558 104.981 87.8944C106.821 89.9724 108.079 92.1854 109.334 94.4796C110.144 95.9598 111.037 97.4448 112.127 98.8236C112.526 99.3288 112.635 99.6951 113.012 98.8668C113.743 97.2607 114.105 95.5733 114.648 93.9258C114.985 92.9038 115.903 90.0531 116.498 88.8203C116.771 88.2556 116.96 87.7639 117.371 88.4655C118.13 89.7608 118.028 91.2404 118.337 92.6062C118.392 92.849 118.405 92.1162 118.429 91.8706C118.468 91.4763 118.779 91.0118 118.481 90.6851C118.285 90.4698 116.759 91.9231 116.66 91.2259C116.52 90.2413 117.942 88.9825 118.736 88.3011C119.383 87.7454 120.184 87.3133 120.869 86.7868C121.283 86.4688 121.567 86.1467 121.835 85.7571C122.074 85.4086 122.695 86.0361 122.852 86.1594C123.957 87.025 124.136 87.5267 124.136 88.6473" stroke="black" stroke-width="3" stroke-linecap="round"/>
<path d="M121.971 94.793C121.498 95.2601 120.935 95.724 120.329 96.0926C120.243 96.1449 120.292 96.3323 120.224 96.3469C120.142 96.3644 120.005 96.4077 119.955 96.4639C119.837 96.5971 119.569 96.6884 119.401 96.8073C119.268 96.9016 119.163 97.0058 119.048 97.0921C118.814 97.2671 118.107 97.1155 117.817 97.0794C117.028 96.981 116.348 96.6519 115.574 96.5122C114.79 96.3706 114.005 96.2307 113.222 96.0977C112.897 96.0423 112.506 96.0447 112.172 96.0316C112.002 96.0248 111.447 95.9549 111.292 96.0392C110.942 96.2296 110.787 96.6628 110.619 96.9446C110.357 97.3829 110.408 97.9756 110.408 98.4452C110.408 99.7377 111.238 100.953 111.724 102.163C111.871 102.531 111.977 102.879 112.148 103.227C112.377 103.689 112.77 104.131 113.127 104.544C113.319 104.766 113.418 105.151 113.8 105.241C114.35 105.37 114.44 105.98 114.643 106.314C114.922 106.773 115.216 107.235 115.547 107.677C115.61 107.762 116.037 108.317 116.155 108.183C116.297 108.025 116.645 107.898 116.845 107.759C117.087 107.591 117.394 107.432 117.675 107.301C117.888 107.202 118.037 107.05 118.239 106.935C118.488 106.792 118.639 106.609 118.82 106.421C118.846 106.394 119.037 106.201 119.068 106.195C119.383 106.127 119.442 105.759 119.67 105.645C119.807 105.577 120.28 105.309 120.472 105.373C120.659 105.435 120.817 105.604 120.995 105.686C121.309 105.83 121.573 105.941 121.852 106.118C121.961 106.188 122.188 106.318 122.338 106.329C122.51 106.343 122.479 106.447 122.61 106.477C122.767 106.513 122.979 106.57 123.099 106.65C123.137 106.675 123.238 106.684 123.252 106.721C123.254 106.725 123.269 106.815 123.303 106.777C123.416 106.65 122.305 105.666 122.209 105.546C121.472 104.627 120.337 104.009 119.809 102.985C119.398 102.187 119.2 101.29 119.143 100.439C119.098 99.7765 118.994 99.0532 119.136 98.3943C119.164 98.2639 119.234 98.1391 119.252 98.0077C119.286 97.746 118.738 98.3749 118.552 98.5978C117.391 99.9845 116.552 101.604 116.635 103.262C116.648 103.527 116.751 103.786 116.757 104.051C116.765 104.374 116.221 103.534 116.043 103.239C115.304 102.013 114.59 100.655 114.446 99.2997C114.407 98.9334 114.449 98.5408 113.923 98.3638C113.852 98.3399 113.247 98.1454 113.236 98.3027C113.22 98.533 113.395 98.9759 113.46 99.1318C113.821 99.9993 114.28 100.855 114.823 101.668C114.984 101.908 115.07 102.274 115.418 102.342C115.474 102.352 115.504 102.273 115.506 102.23C115.518 102.048 115.356 101.363 115.33 101.243C115.309 101.148 115.135 100.411 115.112 100.256C115.045 99.8041 115.446 100.435 115.466 100.459C115.658 100.704 115.934 101.068 116.121 101.314C116.207 101.426 116.289 101.539 116.376 101.65C116.431 101.72 116.519 101.913 116.574 101.843C116.644 101.754 116.585 101.636 116.587 101.533C116.593 101.245 116.606 100.959 116.648 100.673C116.671 100.519 116.709 100.304 116.709 100.561" stroke="#D43024" stroke-width="3" stroke-linecap="round"/>
<path d="M117.077 88.9795C116.375 89.6123 115.736 90.21 115.411 90.9989C115.344 91.1629 115.294 91.3383 115.197 91.4948C115.126 91.6103 115.319 91.2561 115.404 91.1464C115.69 90.7809 116.045 90.4461 116.404 90.124" stroke="#D43024" stroke-width="3" stroke-linecap="round"/>
</svg>
