<svg width="151" height="187" viewBox="0 0 151 187" fill="none" xmlns="http://www.w3.org/2000/svg">
<path d="M150.799 161.207C147.892 164.611 143.408 168.306 137.347 172.292C131.368 176.195 123.688 179.558 114.304 182.381C104.921 185.121 93.5871 186.491 80.3013 186.491C64.4415 186.491 50.5746 183.087 38.7004 176.278C26.8263 169.386 17.5679 159.38 10.925 146.26C4.28214 133.141 0.960715 117.156 0.960715 98.3071V88.4674C0.960715 69.6183 4.15759 53.6339 10.5513 40.5143C17.0281 27.3116 25.996 17.2643 37.4549 10.3723C48.9969 3.48035 62.4071 0.0343681 77.6857 0.0343681C93.8777 0.0343681 107.08 2.64999 117.294 7.88124C127.59 13.0295 135.437 20.2536 140.834 29.5536C146.232 38.7705 149.553 49.3576 150.799 61.3147H111.564C110.734 55.2531 109.073 50.1049 106.582 45.8701C104.174 41.6353 100.728 38.3969 96.2442 36.1549C91.7603 33.8299 85.9893 32.6674 78.9313 32.6674C71.0429 32.6674 64.3585 34.7433 58.8781 38.8951C53.3978 42.9638 49.2045 49.1085 46.2982 57.329C43.475 65.5495 42.0634 75.846 42.0634 88.2183V98.3071C42.0634 110.596 43.558 120.893 46.5473 129.196C49.6196 137.417 54.1451 143.603 60.1237 147.755C66.1853 151.824 73.7415 153.858 82.7924 153.858C88.1897 153.858 92.6737 153.443 96.2442 152.612C99.8978 151.782 102.846 150.744 105.088 149.499C107.329 148.253 109.073 147.049 110.319 145.887V116.741H78.3085V87.471H150.799V161.207Z" fill="black"/>
</svg>
