<svg width="24" height="24" viewBox="0 0 24 24" fill="none" xmlns="http://www.w3.org/2000/svg">
<path d="M12 0C5.38105 0 0 5.38105 0 12C0 18.6189 5.38105 24 12 24C18.6189 24 24 18.6189 24 12C24 5.38105 18.6189 0 12 0ZM1.84421 12.9095H5.58311C5.63369 14.2484 5.78524 15.5116 6.06316 16.6737H2.95583C2.32426 15.5115 1.9454 14.2484 1.84421 12.9095V12.9095ZM12.9095 5.55789V2.02114C13.718 2.40002 14.5011 3.2843 15.1327 4.54746C15.2842 4.87593 15.4358 5.20426 15.5621 5.55789H12.9095ZM16.1179 7.35167C16.3958 8.51386 16.5726 9.77702 16.6232 11.1159H12.8843V7.35167H16.1179ZM11.0906 2.02114V5.55789H8.43789C8.56425 5.20422 8.7158 4.87574 8.86735 4.54746C9.52428 3.2843 10.3074 2.4 11.0905 2.02114H11.0906ZM11.0906 7.35167V11.1159H7.35167C7.40225 9.8022 7.579 8.51382 7.85689 7.35167H11.0906ZM5.55794 11.0906H1.81904C1.94539 9.75162 2.32426 8.48847 2.90526 7.32632H6.01259C5.78526 8.51368 5.60851 9.77684 5.55794 11.0906V11.0906ZM7.37689 12.9095H11.1158V16.6738H7.88211C7.6042 15.4864 7.42746 14.2232 7.37689 12.9095V12.9095ZM11.0906 18.4421V21.9789C10.2821 21.6 9.49895 20.7157 8.86737 19.4526C8.71582 19.1241 8.56426 18.7958 8.43792 18.4421H11.0906ZM12.9095 21.9789V18.4421H15.5622C15.4358 18.7958 15.2843 19.1243 15.1327 19.4526C14.4758 20.7157 13.6927 21.6 12.9095 21.9789H12.9095ZM12.9095 16.6484V12.8841H16.6484C16.5978 14.1978 16.4211 15.4862 16.1432 16.6484H12.9095ZM18.4421 12.9095H22.1811C22.0547 14.2484 21.6758 15.5116 21.0948 16.6737H17.9875C18.2148 15.4864 18.3916 14.2232 18.4421 12.9095ZM18.4421 11.0905C18.3916 9.75158 18.24 8.48842 17.9621 7.32627H21.0694C21.6504 8.46307 22.0295 9.72623 22.1557 11.0905H18.4421ZM19.9074 5.55789H17.4821C17.1032 4.44627 16.6484 3.48623 16.0925 2.65272C17.5832 3.30952 18.8716 4.29474 19.9074 5.55789H19.9074ZM7.90741 2.65272C7.3768 3.46123 6.89698 4.4465 6.51789 5.55789H4.09254C5.12838 4.29474 6.41675 3.30947 7.90737 2.65272H7.90741ZM4.09259 18.4422H6.51794C6.89682 19.5538 7.35162 20.5139 7.90746 21.3474C6.4168 20.6906 5.12842 19.7054 4.09263 18.4422H4.09259ZM16.0926 21.3474C16.6232 20.5389 17.103 19.5536 17.4821 18.4422H19.9075C18.8716 19.7054 17.5832 20.6906 16.0926 21.3474H16.0926Z" fill="white"/>
</svg>
