<svg width="677" height="179" viewBox="0 0 677 179" fill="none" xmlns="http://www.w3.org/2000/svg">
<path d="M660.957 139.067C664.334 143.372 667.311 145.526 666.902 150.333C666.588 154.022 664.077 156.915 660.012 159.85C657.01 162.018 653.043 164.64 652.956 167.469C652.857 170.707 658.709 174.768 663.846 176.334C675.51 179.89 675.209 168.196 674.902 165.009C674.073 156.377 662.39 150.901 650.845 145.768C649.444 145.145 638.828 142.041 641.4 140.668C644.878 138.812 654.22 138 658.957 138" stroke="white" stroke-width="3" stroke-linecap="round"/>
<path d="M607 148.386C609.268 145.331 611.451 140.931 615.596 139.134C616.836 138.596 618.365 138.742 619.49 138.184C622.521 136.678 631.896 144.878 632.751 146.487C634.916 150.563 634.247 159.271 629.898 162.358C627.581 164.002 624.935 165.916 621.88 166.586C617.069 167.641 614.407 169.08 611.395 172.101C608.129 175.376 607.862 177.373 613.553 176.942C620.412 176.423 626.59 174.307 633.522 174.307C636.014 174.307 638.507 174.307 641 174.307" stroke="white" stroke-width="3" stroke-linecap="round"/>
<path d="M160.799 142.207C157.892 145.611 153.408 149.306 147.347 153.292C141.368 157.195 133.688 160.558 124.304 163.381C114.921 166.121 103.587 167.491 90.3013 167.491C74.4415 167.491 60.5746 164.087 48.7004 157.278C36.8263 150.386 27.5679 140.38 20.925 127.26C14.2821 114.141 10.9607 98.1562 10.9607 79.3071V69.4674C10.9607 50.6183 14.1576 34.6339 20.5513 21.5143C27.0281 8.3116 35.996 -1.73572 47.4549 -8.62769C58.9969 -15.5196 72.4071 -18.9656 87.6857 -18.9656C103.878 -18.9656 117.08 -16.35 127.294 -11.1188C137.59 -5.97054 145.437 1.25357 150.834 10.5536C156.232 19.7705 159.553 30.3576 160.799 42.3147H121.564C120.734 36.2531 119.073 31.1049 116.582 26.8701C114.174 22.6353 110.728 19.3969 106.244 17.1549C101.76 14.8299 95.9893 13.6674 88.9313 13.6674C81.0429 13.6674 74.3585 15.7433 68.8781 19.8951C63.3978 23.9638 59.2045 30.1085 56.2982 38.329C53.475 46.5495 52.0634 56.846 52.0634 69.2183V79.3071C52.0634 91.5964 53.558 101.893 56.5473 110.196C59.6196 118.417 64.1451 124.603 70.1237 128.755C76.1853 132.824 83.7415 134.858 92.7924 134.858C98.1897 134.858 102.674 134.443 106.244 133.612C109.898 132.782 112.846 131.744 115.088 130.499C117.329 129.253 119.073 128.049 120.319 126.887V97.7411H88.3085V68.471H160.799V142.207ZM307.274 165H216.225V132.367H307.274V165ZM229.428 165H188.948V-16.35H229.428V165ZM450.51 165H354.729V132.367H450.51V165ZM368.056 165H327.451V-16.35H368.056V165ZM438.055 87.6522H354.729V56.0156H438.055V87.6522ZM450.51 16.4076H354.729V-16.35H450.51V16.4076ZM496.969 87.154L496.72 59.1295H535.207C545.088 59.1295 552.312 57.3442 556.879 53.7737C561.446 50.2031 563.729 45.0134 563.729 38.2045C563.729 30.3991 561.446 24.8357 556.879 21.5143C552.395 18.1098 545.213 16.4076 535.331 16.4076H511.292V165H470.688V-16.35H535.331C556.921 -16.35 573.777 -12.2397 585.9 -4.0192C598.106 4.1183 604.209 16.6567 604.209 33.596C604.209 40.9862 602.549 47.9196 599.227 54.3964C595.906 60.7902 590.55 66.0214 583.16 70.0902C575.853 74.0759 566.179 76.1933 554.139 76.4424L543.054 87.154H496.969ZM486.133 165L501.453 132.367H541.434C550.651 132.367 557.294 130.291 561.363 126.139C565.515 121.987 567.591 116.881 567.591 110.819C567.591 105.92 566.76 101.727 565.1 98.2393C563.439 94.6687 560.823 91.9286 557.253 90.0187C553.682 88.1089 548.949 87.154 543.054 87.154H506.559L506.808 59.1295H551.648L560.989 70.3393C572.448 69.9241 581.624 71.7094 588.516 75.6951C595.408 79.5978 600.39 84.746 603.462 91.1397C606.534 97.5335 608.071 104.259 608.071 111.317C608.071 129.087 602.341 142.497 590.882 151.548C579.423 160.516 562.941 165 541.434 165H486.133Z" fill="white"/>
</svg>
